<?xml version="1.0" encoding="UTF-8"?>
<svg id="Layer_1" data-name="Layer 1" xmlns="http://www.w3.org/2000/svg" viewBox="0 0 161.02 25.79">
  <defs>
    <style>
      .cls-1 {
        fill: #ff5a5a;
      }
    </style>
  </defs>
  <polygon class="cls-1" points="161.02 25.79 39.21 25.79 0 12.9 39.21 0 161.02 0 161.02 25.79"/>
  <g>
    <path d="M54.02,13.68h-2.9v1.49h3.25v1.77h-5.42v-8.08h5.25v1.76h-3.08v1.31h2.9v1.75Z"/>
    <path d="M57.61,16.95l-2.57-8.08h2.37l.85,3.18c.26.9.48,1.79.67,2.83h.02c.2-1,.43-1.93.67-2.79l.88-3.21h2.3l-2.65,8.08h-2.55Z"/>
    <path d="M68.77,13.68h-2.9v1.49h3.25v1.77h-5.42v-8.08h5.25v1.76h-3.08v1.31h2.9v1.75Z"/>
    <path d="M70.32,16.95v-8.08h2.55l1.28,2.48c.44.8.91,1.88,1.27,2.83h.04c-.12-1.07-.17-2.19-.17-3.41v-1.91h1.98v8.08h-2.28l-1.37-2.69c-.46-.86-.98-1.94-1.37-2.93h-.04c.05,1.09.07,2.31.07,3.62v1.99h-1.98Z"/>
    <path d="M80.35,10.67h-2.06v-1.81h6.33v1.81h-2.1v6.27h-2.17v-6.27Z"/>
    <path d="M94.05,16.74c-.31.14-1.07.32-2.04.32-3.02,0-4.35-1.88-4.35-4.03,0-2.85,2.09-4.31,4.5-4.31.94,0,1.69.18,2.03.36l-.42,1.7c-.36-.14-.85-.29-1.5-.29-1.25,0-2.33.73-2.33,2.39,0,1.48.88,2.39,2.36,2.39.53,0,1.12-.11,1.45-.24l.3,1.7Z"/>
    <path d="M97.49,15.07l-.46,1.87h-2.24l2.35-8.08h2.88l2.41,8.08h-2.34l-.52-1.87h-2.09ZM99.27,13.47l-.37-1.45c-.12-.46-.28-1.12-.4-1.6h-.02c-.12.48-.24,1.15-.36,1.61l-.35,1.44h1.5Z"/>
    <path d="M103.46,16.95v-8.08h2.55l1.28,2.48c.44.8.91,1.88,1.27,2.83h.04c-.12-1.07-.17-2.19-.17-3.41v-1.91h1.98v8.08h-2.28l-1.37-2.69c-.46-.86-.98-1.94-1.37-2.93h-.04c.05,1.09.07,2.31.07,3.62v1.99h-1.98Z"/>
    <path d="M117.98,16.74c-.31.14-1.07.32-2.04.32-3.02,0-4.35-1.88-4.35-4.03,0-2.85,2.09-4.31,4.5-4.31.94,0,1.69.18,2.03.36l-.42,1.7c-.36-.14-.85-.29-1.5-.29-1.25,0-2.33.73-2.33,2.39,0,1.48.88,2.39,2.36,2.39.53,0,1.12-.11,1.45-.24l.3,1.7Z"/>
    <path d="M124.22,13.68h-2.9v1.49h3.25v1.77h-5.42v-8.08h5.25v1.76h-3.08v1.31h2.9v1.75Z"/>
    <path d="M125.77,8.86h2.17v6.27h3.11v1.81h-5.28v-8.08Z"/>
    <path d="M132.11,8.86h2.17v6.27h3.11v1.81h-5.28v-8.08Z"/>
    <path d="M143.52,13.68h-2.9v1.49h3.25v1.77h-5.42v-8.08h5.25v1.76h-3.08v1.31h2.9v1.75Z"/>
    <path d="M145.07,8.97c.7-.11,1.62-.17,2.58-.17,1.55,0,2.52.25,3.32.8.89.61,1.46,1.62,1.46,3.11,0,1.64-.62,2.71-1.42,3.32-.89.7-2.21,1-3.79,1-1.04,0-1.74-.06-2.16-.13v-7.93ZM147.24,15.33c.11.02.31.02.46.02,1.4.02,2.43-.76,2.43-2.58,0-1.57-.94-2.31-2.23-2.31-.35,0-.55.02-.66.05v4.82Z"/>
  </g>
</svg>