<?xml version="1.0" encoding="UTF-8"?>
<svg id="Layer_1" data-name="Layer 1" xmlns="http://www.w3.org/2000/svg" viewBox="0 0 456.47 487.73">
  <defs>
    <style>
      .cls-1 {
        fill: red;
      }

      .cls-2 {
        fill: #3370a6;
      }
    </style>
  </defs>
  <path d="M423.92,141.85v-5.89c0-14.1-7.6-22.49-20.95-23.3-.9-1.07-1.81-2.13-2.74-3.19h3.69c5.45,0,8.22.7,9.59,1.3l11.92,5.17-5.1-30.91h-44.96c-41.12-34.79-92.67-53.76-147.15-53.76-34.23,0-67.31,7.49-97.37,21.68L119.16,0l-3.17,58.25.14,2.32c-17.83,10.09-34.41,22.65-49.29,37.53C23.74,141.21,0,198.53,0,259.49s23.74,118.28,66.85,161.39c43.11,43.11,100.42,66.85,161.39,66.85s118.28-23.74,161.39-66.85,66.85-100.42,66.85-161.39c0-42.12-11.34-82.49-32.56-117.64ZM366.34,107.14v7.77c0,3.63,1.13,4.76,4.51,4.76h29.95c10.4,0,16.04,5.14,16.04,16.29v20.05c0,11.15-5.64,16.29-16.04,16.29h-54.63l-2-12.15c3.76,1.63,8.9,1.88,12.4,1.88h32.95c3.38,0,4.51-1.13,4.51-4.76v-10.53c0-3.63-1.13-4.76-4.51-4.76h-29.95c-10.4,0-16.04-5.14-16.04-16.29v-17.29c0-11.15,5.64-16.29,16.04-16.29h54.76l2.01,12.15c-3.76-1.63-8.9-1.88-12.41-1.88h-33.08c-3.38,0-4.51,1.13-4.51,4.76ZM331.64,102.88v58.64c0,3.63.25,7.02,1.5,10.78h-25.81c1.25-3.76,1.5-7.14,1.5-10.78v-57.89h-.25l-27.44,68.66h-16.29l-26.94-68.66h-.25v57.89c0,3.63.25,7.02,1.5,10.78h-13.78c1.25-3.76,1.5-7.14,1.5-10.78v-58.64c0-3.63-.25-7.02-1.5-10.78h31.58l22.93,58.26,23.31-58.26h29.95c-1.25,3.76-1.5,7.14-1.5,10.78ZM390.04,112.58h-16.61v-3.12h13.71c.98,1.03,1.95,2.07,2.9,3.12ZM228.24,40.95c48.15,0,93.92,15.48,131.64,44.07h-.31c-8.93,0-15.55,3.15-19.36,8.96-.06-.04-.12-.08-.18-.12l2.94-8.84h-17.28c-28.85-16.18-62.09-25.42-97.45-25.42-32.77,0-63.72,7.93-91.04,21.96l-4.17-18.89c29.31-14.21,61.68-21.72,95.22-21.72ZM123.02,50.27l33.75,152.67,19.14,35.93-10.91,26.92c3.42-5.59,15.45-15.04,15.08-28.18-.38-5.28-11.82-27.82-11.54-28,54.04-14.94,111.76,10.22,140.75,57.45l-5.21,3.58.33,7.49c6.19.65,16.61,18.24,16.61,18.24,0,0,8.47-1.3,20.52,6.51,12.05,7.82,23.78,42.67,23.78,42.67,0,0-13.03,14.98-19.87,20.52s-140.71,35.83-145.59,37.13c-4.89,1.3-10.75,13.35-19.54,15.96-9.45-5.54-18.24-18.24-18.24-18.24l-14.98-1.63-34.53-35.83,4.89-19.22s19.22-3.91,22.47-5.54c2.61,14.01,15.96,45.6,35.18,52.77,31.27-14.66,71.01-51.46,71.01-51.46l33.22-.33,23.45,4.23,6.84,22.8-1.95-26.06-28.34-5.86h-30.29c15.09-39.38,51.3-56.23,51.3-56.23-1.69,0-33.89,6-55.39,48.08h-11.87c-7.73,5.75-21.1,12.34-34.91,17.7,1.08,2.23,1.69,4.74,1.69,7.38,0,9.35-7.58,16.94-16.94,16.94-8.61,0-15.71-6.42-16.79-14.73-1.78.32-3.47.57-5.03.73-9.12-2.61-20.85-21.82-20.85-21.82l-22.8,5.21s4.06-23.63,9.27-27.86c3.43,8.8,6.51,12.48,13.95,17.82-7.3-11.16-9.82-20.81-9.21-22.85-3.13-23.07-1.39-46.92,5.26-63.78,0,0,20.87,37.16,23.47,35.08l-27.44-53.8-9.73-172.4ZM382.77,414.02c-41.28,41.28-96.16,64.01-154.53,64.01s-113.25-22.73-154.53-64.01c-41.28-41.28-64.01-96.16-64.01-154.53s22.73-113.25,64.01-154.53c13.09-13.09,27.56-24.31,43.07-33.54l1.26,21.39c-54,35.83-89.68,97.16-89.68,166.68,0,110.22,89.67,199.89,199.89,199.89s199.89-89.67,199.89-199.89c0-29.09-6.25-56.74-17.47-81.69,7.14-2.6,11.6-8.31,12.88-16.61,15.2,30.12,23.24,63.59,23.24,98.31,0,58.37-22.73,113.25-64.01,154.53Z"/>
  <path class="cls-2" d="M423.54,161.18c-1.27,8.3-5.74,14.02-12.88,16.61,11.22,24.95,17.47,52.61,17.47,81.69,0,110.22-89.67,199.89-199.89,199.89S28.34,369.71,28.34,259.49c0-69.52,35.68-130.85,89.68-166.68l-1.26-21.39c-15.51,9.23-29.97,20.45-43.07,33.54C32.43,146.24,9.7,201.12,9.7,259.49s22.73,113.25,64.01,154.53c41.28,41.28,96.16,64.01,154.53,64.01s113.25-22.73,154.53-64.01c41.28-41.28,64.01-96.16,64.01-154.53,0-34.71-8.04-68.19-23.24-98.31Z"/>
  <path class="cls-2" d="M137.19,81.56c27.32-14.04,58.27-21.96,91.04-21.96,35.36,0,68.6,9.24,97.45,25.42h17.28l-2.94,8.84c.06.04.12.08.18.12,3.82-5.81,10.43-8.96,19.36-8.96h.31c-37.72-28.59-83.49-44.07-131.64-44.07-33.53,0-65.91,7.52-95.22,21.72l4.17,18.89Z"/>
  <path class="cls-2" d="M373.42,109.46v3.12h16.61c-.95-1.05-1.92-2.09-2.9-3.12h-13.71Z"/>
  <path class="cls-1" d="M182.92,368.69c9.35,0,16.94-7.58,16.94-16.94,0-2.65-.61-5.15-1.69-7.38-11.34,4.4-22.96,7.97-32.04,9.59,1.08,8.31,8.18,14.73,16.79,14.73Z"/>
  <path class="cls-2" d="M132.75,222.67l27.44,53.8c-2.6,2.08-23.47-35.08-23.47-35.08-6.66,16.86-8.4,40.71-5.26,63.78-.6,2.04,1.92,11.69,9.21,22.85-7.45-5.34-10.52-9.02-13.95-17.82-5.21,4.23-9.27,27.86-9.27,27.86l22.8-5.21s11.73,19.22,20.85,21.82c1.56-.16,3.25-.41,5.03-.73,9.07-1.62,20.7-5.19,32.04-9.59,13.82-5.36,27.19-11.94,34.91-17.7h11.87c21.5-42.08,53.7-48.08,55.39-48.08,0,0-36.22,16.85-51.3,56.23h30.29l28.34,5.86,1.95,26.06-6.84-22.8-23.45-4.23-33.22.33s-39.74,36.81-71.01,51.46c-19.22-7.17-32.57-38.76-35.18-52.77-3.26,1.63-22.47,5.54-22.47,5.54l-4.89,19.22,34.53,35.83,14.98,1.63s8.79,12.7,18.24,18.24c8.79-2.61,14.66-14.66,19.54-15.96,4.89-1.3,138.75-31.59,145.59-37.13s19.87-20.52,19.87-20.52c0,0-11.73-34.85-23.78-42.67-12.05-7.82-20.52-6.51-20.52-6.51,0,0-10.42-17.59-16.61-18.24l-.33-7.49,5.21-3.58c-28.99-47.23-86.7-72.39-140.75-57.45-.28.19,11.15,22.72,11.54,28,.36,13.13-11.66,22.59-15.08,28.18l10.91-26.92-19.14-35.93L123.02,50.27l9.73,172.4ZM164.12,267.98h0s0,0,0,0Z"/>
  <path class="cls-2" d="M303.2,92.1l-23.31,58.26-22.93-58.26h-31.58c1.25,3.76,1.5,7.14,1.5,10.78v58.64c0,3.63-.25,7.02-1.5,10.78h13.78c-1.25-3.76-1.5-7.14-1.5-10.78v-57.89h.25l26.94,68.66h16.29l27.44-68.66h.25v57.89c0,3.63-.25,7.02-1.5,10.78h25.81c-1.25-3.76-1.5-7.14-1.5-10.78v-58.64c0-3.63.25-7.02,1.5-10.78h-29.95Z"/>
  <path class="cls-2" d="M403.93,102.38c3.51,0,8.65.25,12.41,1.88l-2.01-12.15h-54.76c-10.4,0-16.04,5.14-16.04,16.29v17.29c0,11.15,5.64,16.29,16.04,16.29h29.95c3.38,0,4.51,1.13,4.51,4.76v10.53c0,3.63-1.13,4.76-4.51,4.76h-32.95c-3.51,0-8.64-.25-12.4-1.88l2,12.15h54.63c10.4,0,16.04-5.14,16.04-16.29v-20.05c0-11.15-5.64-16.29-16.04-16.29h-29.95c-3.38,0-4.51-1.13-4.51-4.76v-7.77c0-3.63,1.13-4.76,4.51-4.76h33.08Z"/>
</svg>